<svg width="676" height="138" viewBox="0 0 676 138" fill="none" xmlns="http://www.w3.org/2000/svg">
<path d="M0.300782 82.5H18.3008C19.4008 85.9 21.6508 88.7 25.0508 90.9C28.5508 93 33.1008 94.05 38.7008 94.05C42.5008 94.05 45.4508 93.7 47.5508 93C49.6508 92.3 51.1008 91.3 51.9008 90C52.7008 88.6 53.1008 87.05 53.1008 85.35C53.1008 83.25 52.4508 81.65 51.1508 80.55C49.8508 79.35 47.8508 78.4 45.1508 77.7C42.4508 77 39.0008 76.35 34.8008 75.75C30.6008 75.05 26.5508 74.2 22.6508 73.2C18.7508 72.2 15.3008 70.9 12.3008 69.3C9.30078 67.6 6.90078 65.5 5.10078 63C3.40078 60.4 2.55078 57.25 2.55078 53.55C2.55078 49.95 3.40078 46.75 5.10078 43.95C6.90078 41.15 9.35078 38.8 12.4508 36.9C15.6508 35 19.3508 33.55 23.5508 32.55C27.8508 31.55 32.4508 31.05 37.3508 31.05C44.7508 31.05 50.9008 32.15 55.8008 34.35C60.7008 36.45 64.3508 39.45 66.7508 43.35C69.2508 47.15 70.5008 51.55 70.5008 56.55H53.2508C52.4508 52.85 50.8508 50.2 48.4508 48.6C46.0508 46.9 42.3508 46.05 37.3508 46.05C32.4508 46.05 28.7508 46.8 26.2508 48.3C23.7508 49.8 22.5008 51.85 22.5008 54.45C22.5008 56.55 23.2508 58.2 24.7508 59.4C26.3508 60.5 28.6508 61.4 31.6508 62.1C34.7508 62.8 38.6008 63.55 43.2008 64.35C47.1008 65.15 50.8008 66.05 54.3008 67.05C57.9008 68.05 61.1008 69.35 63.9008 70.95C66.7008 72.45 68.9008 74.5 70.5008 77.1C72.2008 79.6 73.0508 82.8 73.0508 86.7C73.0508 91.5 71.6508 95.55 68.8508 98.85C66.1508 102.15 62.2508 104.7 57.1508 106.5C52.0508 108.2 45.9508 109.05 38.8508 109.05C32.5508 109.05 27.1008 108.4 22.5008 107.1C18.0008 105.7 14.2508 103.95 11.2508 101.85C8.25078 99.65 5.90078 97.35 4.20078 94.95C2.60078 92.45 1.50078 90.1 0.900782 87.9C0.300782 85.7 0.100782 83.9 0.300782 82.5ZM110.319 -5.00679e-06V17.1H87.6688V-5.00679e-06H110.319ZM89.1688 32.7H108.669V107.25H89.1688V32.7ZM165.305 95.85C157.205 95.85 150.055 94.65 143.855 92.25C137.755 89.75 133.005 86.1 129.605 81.3C126.205 76.5 124.505 70.7 124.505 63.9C124.505 57.2 126.155 51.4 129.455 46.5C132.755 41.6 137.455 37.8 143.555 35.1C149.755 32.4 157.005 31.05 165.305 31.05C167.605 31.05 169.805 31.2 171.905 31.5C174.105 31.8 176.255 32.2 178.355 32.7L216.005 32.85V47.55C210.905 47.65 205.705 47.05 200.405 45.75C195.205 44.35 190.605 42.85 186.605 41.25L186.155 40.2C189.555 41.8 192.755 43.8 195.755 46.2C198.755 48.5 201.155 51.2 202.955 54.3C204.855 57.3 205.805 60.8 205.805 64.8C205.805 71.3 204.155 76.9 200.855 81.6C197.555 86.2 192.855 89.75 186.755 92.25C180.755 94.65 173.605 95.85 165.305 95.85ZM190.355 138V134.4C190.355 129.8 188.855 126.6 185.855 124.8C182.955 123 178.955 122.1 173.855 122.1H150.605C146.105 122.1 142.305 121.75 139.205 121.05C136.205 120.35 133.805 119.35 132.005 118.05C130.205 116.75 128.905 115.2 128.105 113.4C127.305 111.7 126.905 109.85 126.905 107.85C126.905 103.85 128.205 100.85 130.805 98.85C133.405 96.75 136.905 95.35 141.305 94.65C145.705 93.95 150.555 93.8 155.855 94.2L165.305 95.85C159.005 96.05 154.305 96.6 151.205 97.5C148.205 98.3 146.705 99.95 146.705 102.45C146.705 103.95 147.305 105.15 148.505 106.05C149.705 106.85 151.405 107.25 153.605 107.25H178.055C184.755 107.25 190.455 107.95 195.155 109.35C199.955 110.85 203.605 113.3 206.105 116.7C208.605 120.2 209.855 124.95 209.855 130.95V138H190.355ZM165.305 81.75C169.605 81.75 173.355 81.05 176.555 79.65C179.855 78.25 182.405 76.25 184.205 73.65C186.005 70.95 186.905 67.75 186.905 64.05C186.905 60.25 186.005 57 184.205 54.3C182.405 51.6 179.905 49.55 176.705 48.15C173.505 46.65 169.705 45.9 165.305 45.9C161.005 45.9 157.205 46.65 153.905 48.15C150.605 49.55 148.055 51.6 146.255 54.3C144.455 57 143.555 60.25 143.555 64.05C143.555 67.75 144.455 70.95 146.255 73.65C148.055 76.25 150.555 78.25 153.755 79.65C157.055 81.05 160.905 81.75 165.305 81.75ZM228.74 32.7H248.24V107.25H228.74V32.7ZM282.89 31.05C287.49 31.05 291.74 31.65 295.64 32.85C299.54 34.05 302.94 35.9 305.84 38.4C308.74 40.9 310.99 44.1 312.59 48C314.19 51.8 314.99 56.35 314.99 61.65V107.25H295.49V65.1C295.49 58.8 293.94 54.2 290.84 51.3C287.84 48.3 282.89 46.8 275.99 46.8C270.79 46.8 266.09 47.8 261.89 49.8C257.69 51.8 254.29 54.35 251.69 57.45C249.09 60.45 247.59 63.6 247.19 66.9L247.04 59.25C247.54 55.75 248.69 52.35 250.49 49.05C252.29 45.75 254.69 42.75 257.69 40.05C260.79 37.25 264.44 35.05 268.64 33.45C272.84 31.85 277.59 31.05 282.89 31.05ZM369.044 108.9C361.644 108.9 354.894 107.3 348.794 104.1C342.794 100.8 337.994 96.25 334.394 90.45C330.894 84.55 329.144 77.75 329.144 70.05C329.144 62.15 330.944 55.3 334.544 49.5C338.144 43.7 342.994 39.2 349.094 36C355.294 32.7 362.294 31.05 370.094 31.05C378.694 31.05 385.594 32.8 390.794 36.3C396.094 39.7 399.944 44.35 402.344 50.25C404.744 56.15 405.944 62.75 405.944 70.05C405.944 74.45 405.244 78.95 403.844 83.55C402.444 88.05 400.294 92.25 397.394 96.15C394.494 99.95 390.694 103.05 385.994 105.45C381.294 107.75 375.644 108.9 369.044 108.9ZM375.344 93.9C381.244 93.9 386.344 92.9 390.644 90.9C394.944 88.9 398.244 86.1 400.544 82.5C402.844 78.9 403.994 74.75 403.994 70.05C403.994 64.95 402.794 60.65 400.394 57.15C398.094 53.55 394.794 50.85 390.494 49.05C386.294 47.15 381.244 46.2 375.344 46.2C367.044 46.2 360.594 48.4 355.994 52.8C351.394 57.1 349.094 62.85 349.094 70.05C349.094 74.85 350.194 79.05 352.394 82.65C354.594 86.15 357.644 88.9 361.544 90.9C365.544 92.9 370.144 93.9 375.344 93.9ZM403.994 32.7H423.494V107.25H405.344C405.344 107.25 405.194 106.3 404.894 104.4C404.694 102.4 404.494 99.9 404.294 96.9C404.094 93.9 403.994 90.95 403.994 88.05V32.7ZM442.643 2.7H462.143V107.25H442.643V2.7ZM525.815 109.05C516.415 109.05 508.115 107.55 500.915 104.55C493.815 101.55 488.265 97.2 484.265 91.5C480.265 85.7 478.265 78.6 478.265 70.2C478.265 61.8 480.265 54.7 484.265 48.9C488.265 43 493.815 38.55 500.915 35.55C508.115 32.55 516.415 31.05 525.815 31.05C535.215 31.05 543.415 32.55 550.415 35.55C557.515 38.55 563.065 43 567.065 48.9C571.065 54.7 573.065 61.8 573.065 70.2C573.065 78.6 571.065 85.7 567.065 91.5C563.065 97.2 557.515 101.55 550.415 104.55C543.415 107.55 535.215 109.05 525.815 109.05ZM525.815 94.05C531.015 94.05 535.665 93.15 539.765 91.35C543.965 89.45 547.265 86.75 549.665 83.25C552.065 79.65 553.265 75.3 553.265 70.2C553.265 65.1 552.065 60.75 549.665 57.15C547.265 53.45 544.015 50.65 539.915 48.75C535.815 46.85 531.115 45.9 525.815 45.9C520.615 45.9 515.915 46.85 511.715 48.75C507.515 50.65 504.165 53.4 501.665 57C499.265 60.6 498.065 65 498.065 70.2C498.065 75.3 499.265 79.65 501.665 83.25C504.065 86.75 507.365 89.45 511.565 91.35C515.765 93.15 520.515 94.05 525.815 94.05ZM624.68 95.85C616.58 95.85 609.43 94.65 603.23 92.25C597.13 89.75 592.38 86.1 588.98 81.3C585.58 76.5 583.88 70.7 583.88 63.9C583.88 57.2 585.53 51.4 588.83 46.5C592.13 41.6 596.83 37.8 602.93 35.1C609.13 32.4 616.38 31.05 624.68 31.05C626.98 31.05 629.18 31.2 631.28 31.5C633.48 31.8 635.63 32.2 637.73 32.7L675.38 32.85V47.55C670.28 47.65 665.08 47.05 659.78 45.75C654.58 44.35 649.98 42.85 645.98 41.25L645.53 40.2C648.93 41.8 652.13 43.8 655.13 46.2C658.13 48.5 660.53 51.2 662.33 54.3C664.23 57.3 665.18 60.8 665.18 64.8C665.18 71.3 663.53 76.9 660.23 81.6C656.93 86.2 652.23 89.75 646.13 92.25C640.13 94.65 632.98 95.85 624.68 95.85ZM649.73 138V134.4C649.73 129.8 648.23 126.6 645.23 124.8C642.33 123 638.33 122.1 633.23 122.1H609.98C605.48 122.1 601.68 121.75 598.58 121.05C595.58 120.35 593.18 119.35 591.38 118.05C589.58 116.75 588.28 115.2 587.48 113.4C586.68 111.7 586.28 109.85 586.28 107.85C586.28 103.85 587.58 100.85 590.18 98.85C592.78 96.75 596.28 95.35 600.68 94.65C605.08 93.95 609.93 93.8 615.23 94.2L624.68 95.85C618.38 96.05 613.68 96.6 610.58 97.5C607.58 98.3 606.08 99.95 606.08 102.45C606.08 103.95 606.68 105.15 607.88 106.05C609.08 106.85 610.78 107.25 612.98 107.25H637.43C644.13 107.25 649.83 107.95 654.53 109.35C659.33 110.85 662.98 113.3 665.48 116.7C667.98 120.2 669.23 124.95 669.23 130.95V138H649.73ZM624.68 81.75C628.98 81.75 632.73 81.05 635.93 79.65C639.23 78.25 641.78 76.25 643.58 73.65C645.38 70.95 646.28 67.75 646.28 64.05C646.28 60.25 645.38 57 643.58 54.3C641.78 51.6 639.28 49.55 636.08 48.15C632.88 46.65 629.08 45.9 624.68 45.9C620.38 45.9 616.58 46.65 613.28 48.15C609.98 49.55 607.43 51.6 605.63 54.3C603.83 57 602.93 60.25 602.93 64.05C602.93 67.75 603.83 70.95 605.63 73.65C607.43 76.25 609.93 78.25 613.13 79.65C616.43 81.05 620.28 81.75 624.68 81.75Z" fill="white"/>
</svg>

