<svg width="560" height="51" viewBox="0 0 560 51" fill="none" xmlns="http://www.w3.org/2000/svg">
<path d="M-0.000532389 39V1.18182H22.8233V5.24432H4.57901V18.0227H21.6415V22.0852H4.57901V34.9375H23.1188V39H-0.000532389ZM53.6799 10.6364L43.1912 39H38.7594L28.2708 10.6364H32.998L40.8276 33.2386H41.123L48.9526 10.6364H53.6799ZM70.3084 39.5909C67.5755 39.5909 65.218 38.9877 63.236 37.7812C61.2663 36.5625 59.7459 34.8636 58.6749 32.6847C57.6162 30.4934 57.0868 27.9451 57.0868 25.0398C57.0868 22.1345 57.6162 19.5739 58.6749 17.358C59.7459 15.1297 61.2355 13.3939 63.1436 12.1506C65.0641 10.8949 67.3046 10.267 69.8652 10.267C71.3425 10.267 72.8013 10.5133 74.2417 11.0057C75.682 11.4981 76.9931 12.2983 78.1749 13.4062C79.3567 14.5019 80.2985 15.9545 81.0002 17.7642C81.7019 19.5739 82.0527 21.8021 82.0527 24.4489V26.2955H60.1891V22.5284H77.6209C77.6209 20.928 77.3008 19.5 76.6607 18.2443C76.0328 16.9886 75.1342 15.9976 73.9647 15.2713C72.8075 14.545 71.441 14.1818 69.8652 14.1818C68.1294 14.1818 66.6275 14.6127 65.3596 15.4744C64.1039 16.3239 63.1375 17.4318 62.4604 18.7983C61.7833 20.1648 61.4448 21.6297 61.4448 23.1932V25.7045C61.4448 27.8466 61.8141 29.6624 62.5527 31.152C63.3037 32.6293 64.3439 33.7557 65.6735 34.5312C67.003 35.2945 68.548 35.6761 70.3084 35.6761C71.4533 35.6761 72.4874 35.5161 73.4107 35.196C74.3463 34.8636 75.1526 34.3712 75.8297 33.7188C76.5068 33.054 77.03 32.2292 77.3993 31.2443L81.6096 32.4261C81.1664 33.8542 80.4216 35.1098 79.3752 36.1932C78.3288 37.2642 77.0362 38.1013 75.4973 38.7045C73.9585 39.2955 72.2289 39.5909 70.3084 39.5909ZM88.682 39V10.6364H92.8922V14.9205H93.1877C93.7047 13.517 94.6403 12.3783 95.9945 11.5043C97.3487 10.6302 98.8752 10.1932 100.574 10.1932C100.894 10.1932 101.294 10.1993 101.774 10.2116C102.254 10.224 102.618 10.2424 102.864 10.267V14.6989C102.716 14.6619 102.378 14.6065 101.848 14.5327C101.331 14.4465 100.783 14.4034 100.205 14.4034C98.8259 14.4034 97.5949 14.6927 96.5115 15.2713C95.4405 15.8376 94.5911 16.6255 93.9632 17.6349C93.3477 18.6321 93.04 19.7708 93.04 21.0511V39H88.682ZM111.7 49.6364C110.961 49.6364 110.302 49.5748 109.724 49.4517C109.145 49.3409 108.745 49.2301 108.524 49.1193L109.632 45.2784C110.69 45.5492 111.626 45.6477 112.438 45.5739C113.251 45.5 113.971 45.1368 114.599 44.4844C115.239 43.8442 115.824 42.804 116.353 41.3636L117.166 39.1477L106.677 10.6364H111.404L119.234 33.2386H119.529L127.359 10.6364H132.086L120.046 43.1364C119.505 44.6013 118.834 45.8139 118.034 46.7741C117.233 47.7467 116.304 48.4669 115.245 48.9347C114.199 49.4025 113.017 49.6364 111.7 49.6364ZM172.554 16.9886L168.639 18.0966C168.393 17.4441 168.03 16.8101 167.55 16.1946C167.082 15.5668 166.442 15.0497 165.629 14.6435C164.817 14.2372 163.777 14.0341 162.509 14.0341C160.773 14.0341 159.326 14.4342 158.169 15.2344C157.024 16.0223 156.452 17.0256 156.452 18.2443C156.452 19.3277 156.846 20.1832 157.634 20.8111C158.422 21.4389 159.653 21.9621 161.327 22.3807L165.537 23.4148C168.073 24.0303 169.963 24.9721 171.206 26.2401C172.45 27.4957 173.071 29.1146 173.071 31.0966C173.071 32.7216 172.603 34.1742 171.668 35.4545C170.744 36.7348 169.452 37.7443 167.79 38.483C166.128 39.2216 164.195 39.5909 161.992 39.5909C159.099 39.5909 156.704 38.9631 154.808 37.7074C152.913 36.4517 151.712 34.6174 151.208 32.2045L155.344 31.1705C155.738 32.697 156.483 33.8419 157.578 34.6051C158.686 35.3684 160.133 35.75 161.918 35.75C163.949 35.75 165.562 35.3191 166.756 34.4574C167.962 33.5833 168.566 32.5369 168.566 31.3182C168.566 30.3333 168.221 29.5085 167.531 28.8438C166.842 28.1667 165.783 27.6619 164.355 27.3295L159.628 26.2216C157.03 25.6061 155.122 24.652 153.904 23.3594C152.697 22.0545 152.094 20.4233 152.094 18.4659C152.094 16.8655 152.543 15.4498 153.442 14.2188C154.353 12.9877 155.59 12.0213 157.154 11.3196C158.729 10.6179 160.514 10.267 162.509 10.267C165.316 10.267 167.519 10.8826 169.119 12.1136C170.732 13.3447 171.877 14.9697 172.554 16.9886ZM179.631 39V10.6364H183.989V39H179.631ZM181.847 5.90909C180.998 5.90909 180.265 5.61979 179.65 5.04119C179.046 4.46259 178.745 3.76705 178.745 2.95455C178.745 2.14205 179.046 1.4465 179.65 0.867896C180.265 0.289299 180.998 0 181.847 0C182.697 0 183.423 0.289299 184.026 0.867896C184.642 1.4465 184.949 2.14205 184.949 2.95455C184.949 3.76705 184.642 4.46259 184.026 5.04119C183.423 5.61979 182.697 5.90909 181.847 5.90909ZM203.42 50.2273C201.315 50.2273 199.505 49.9564 197.991 49.4148C196.477 48.8854 195.215 48.1837 194.205 47.3097C193.208 46.4479 192.414 45.5246 191.823 44.5398L195.295 42.1023C195.689 42.6193 196.187 43.2102 196.791 43.875C197.394 44.5521 198.219 45.1368 199.265 45.6293C200.324 46.134 201.709 46.3864 203.42 46.3864C205.71 46.3864 207.599 45.8324 209.089 44.7244C210.579 43.6165 211.323 41.8807 211.323 39.517V33.7557H210.954C210.634 34.2727 210.178 34.9129 209.588 35.6761C209.009 36.4271 208.172 37.098 207.076 37.6889C205.993 38.2675 204.528 38.5568 202.681 38.5568C200.392 38.5568 198.336 38.0152 196.514 36.9318C194.704 35.8485 193.27 34.2727 192.211 32.2045C191.165 30.1364 190.642 27.625 190.642 24.6705C190.642 21.7652 191.152 19.2353 192.174 17.081C193.196 14.9143 194.618 13.2401 196.44 12.0582C198.262 10.8641 200.367 10.267 202.755 10.267C204.602 10.267 206.067 10.5748 207.15 11.1903C208.246 11.7936 209.083 12.483 209.661 13.2585C210.252 14.0218 210.708 14.6496 211.028 15.142H211.471V10.6364H215.681V39.8125C215.681 42.25 215.127 44.232 214.019 45.7585C212.924 47.2973 211.446 48.4238 209.588 49.1378C207.741 49.8641 205.685 50.2273 203.42 50.2273ZM203.272 34.642C205.02 34.642 206.498 34.242 207.704 33.4418C208.91 32.6416 209.828 31.4905 210.455 29.9886C211.083 28.4867 211.397 26.6894 211.397 24.5966C211.397 22.553 211.089 20.7495 210.474 19.1861C209.858 17.6226 208.947 16.3977 207.741 15.5114C206.535 14.625 205.045 14.1818 203.272 14.1818C201.426 14.1818 199.887 14.6496 198.656 15.5852C197.437 16.5208 196.52 17.7765 195.904 19.3523C195.301 20.928 194.999 22.6761 194.999 24.5966C194.999 26.5663 195.307 28.3082 195.923 29.8224C196.551 31.3243 197.474 32.5062 198.693 33.3679C199.924 34.2173 201.45 34.642 203.272 34.642ZM228.017 21.9375V39H223.659V10.6364H227.869V15.0682H228.238C228.903 13.6278 229.912 12.4706 231.267 11.5966C232.621 10.7102 234.369 10.267 236.511 10.267C238.431 10.267 240.112 10.661 241.552 11.4489C242.992 12.2244 244.113 13.4062 244.913 14.9943C245.713 16.5701 246.113 18.5644 246.113 20.9773V39H241.755V21.2727C241.755 19.0445 241.177 17.3087 240.019 16.0653C238.862 14.8097 237.274 14.1818 235.255 14.1818C233.864 14.1818 232.621 14.4834 231.525 15.0866C230.442 15.6899 229.586 16.5701 228.958 17.7273C228.33 18.8845 228.017 20.2879 228.017 21.9375ZM262.423 39.6648C260.626 39.6648 258.995 39.3262 257.53 38.6491C256.065 37.9598 254.901 36.9688 254.04 35.6761C253.178 34.3712 252.747 32.7955 252.747 30.9489C252.747 29.3239 253.067 28.0066 253.707 26.9972C254.347 25.9754 255.203 25.1752 256.274 24.5966C257.345 24.018 258.527 23.5871 259.819 23.304C261.124 23.0085 262.435 22.7746 263.753 22.6023C265.476 22.3807 266.873 22.2145 267.944 22.1037C269.028 21.9806 269.816 21.7775 270.308 21.4943C270.813 21.2112 271.065 20.7187 271.065 20.017V19.8693C271.065 18.0473 270.567 16.6316 269.569 15.6222C268.585 14.6127 267.089 14.108 265.082 14.108C263.002 14.108 261.371 14.5634 260.189 15.4744C259.007 16.3854 258.176 17.358 257.696 18.392L253.559 16.9148C254.298 15.1913 255.283 13.8494 256.514 12.8892C257.757 11.9167 259.112 11.2396 260.577 10.858C262.054 10.464 263.506 10.267 264.934 10.267C265.845 10.267 266.892 10.3778 268.074 10.5994C269.268 10.8087 270.419 11.2457 271.527 11.9105C272.647 12.5753 273.577 13.5786 274.315 14.9205C275.054 16.2623 275.423 18.0597 275.423 20.3125V39H271.065V35.1591H270.844C270.548 35.7746 270.056 36.4332 269.366 37.1349C268.677 37.8366 267.76 38.4337 266.615 38.9261C265.47 39.4186 264.073 39.6648 262.423 39.6648ZM263.088 35.75C264.811 35.75 266.264 35.4115 267.446 34.7344C268.64 34.0573 269.539 33.1832 270.142 32.1122C270.757 31.0412 271.065 29.9148 271.065 28.733V24.7443C270.881 24.9659 270.474 25.169 269.846 25.3537C269.231 25.526 268.517 25.6799 267.704 25.8153C266.904 25.9384 266.122 26.0492 265.359 26.1477C264.608 26.2339 263.999 26.3078 263.531 26.3693C262.398 26.517 261.34 26.7571 260.355 27.0895C259.382 27.4096 258.595 27.8958 257.991 28.5483C257.4 29.1884 257.105 30.0625 257.105 31.1705C257.105 32.6847 257.665 33.8295 258.785 34.6051C259.918 35.3684 261.352 35.75 263.088 35.75ZM287.735 1.18182V39H283.377V1.18182H287.735ZM298.893 39.2955C297.982 39.2955 297.201 38.9692 296.548 38.3168C295.896 37.6643 295.569 36.8826 295.569 35.9716C295.569 35.0606 295.896 34.2789 296.548 33.6264C297.201 32.974 297.982 32.6477 298.893 32.6477C299.804 32.6477 300.586 32.974 301.238 33.6264C301.891 34.2789 302.217 35.0606 302.217 35.9716C302.217 36.5748 302.063 37.1288 301.756 37.6335C301.46 38.1383 301.06 38.5445 300.555 38.8523C300.063 39.1477 299.509 39.2955 298.893 39.2955ZM325.253 39V1.18182H348.077V5.24432H329.833V18.0227H346.895V22.0852H329.833V34.9375H348.373V39H325.253ZM378.934 10.6364L368.445 39H364.013L353.525 10.6364H358.252L366.081 33.2386H366.377L374.206 10.6364H378.934ZM395.562 39.5909C392.829 39.5909 390.472 38.9877 388.49 37.7812C386.52 36.5625 385 34.8636 383.929 32.6847C382.87 30.4934 382.341 27.9451 382.341 25.0398C382.341 22.1345 382.87 19.5739 383.929 17.358C385 15.1297 386.489 13.3939 388.398 12.1506C390.318 10.8949 392.559 10.267 395.119 10.267C396.596 10.267 398.055 10.5133 399.496 11.0057C400.936 11.4981 402.247 12.2983 403.429 13.4062C404.611 14.5019 405.552 15.9545 406.254 17.7642C406.956 19.5739 407.307 21.8021 407.307 24.4489V26.2955H385.443V22.5284H402.875C402.875 20.928 402.555 19.5 401.915 18.2443C401.287 16.9886 400.388 15.9976 399.219 15.2713C398.061 14.545 396.695 14.1818 395.119 14.1818C393.383 14.1818 391.881 14.6127 390.613 15.4744C389.358 16.3239 388.391 17.4318 387.714 18.7983C387.037 20.1648 386.699 21.6297 386.699 23.1932V25.7045C386.699 27.8466 387.068 29.6624 387.807 31.152C388.558 32.6293 389.598 33.7557 390.927 34.5312C392.257 35.2945 393.802 35.6761 395.562 35.6761C396.707 35.6761 397.741 35.5161 398.665 35.196C399.6 34.8636 400.407 34.3712 401.084 33.7188C401.761 33.054 402.284 32.2292 402.653 31.2443L406.863 32.4261C406.42 33.8542 405.675 35.1098 404.629 36.1932C403.583 37.2642 402.29 38.1013 400.751 38.7045C399.212 39.2955 397.483 39.5909 395.562 39.5909ZM413.936 39V10.6364H418.146V14.9205H418.442C418.959 13.517 419.894 12.3783 421.248 11.5043C422.603 10.6302 424.129 10.1932 425.828 10.1932C426.148 10.1932 426.548 10.1993 427.028 10.2116C427.508 10.224 427.872 10.2424 428.118 10.267V14.6989C427.97 14.6619 427.631 14.6065 427.102 14.5327C426.585 14.4465 426.037 14.4034 425.459 14.4034C424.08 14.4034 422.849 14.6927 421.765 15.2713C420.694 15.8376 419.845 16.6255 419.217 17.6349C418.602 18.6321 418.294 19.7708 418.294 21.0511V39H413.936ZM436.954 49.6364C436.215 49.6364 435.556 49.5748 434.978 49.4517C434.399 49.3409 433.999 49.2301 433.778 49.1193L434.885 45.2784C435.944 45.5492 436.88 45.6477 437.692 45.5739C438.505 45.5 439.225 45.1368 439.853 44.4844C440.493 43.8442 441.078 42.804 441.607 41.3636L442.42 39.1477L431.931 10.6364H436.658L444.488 33.2386H444.783L452.613 10.6364H457.34L445.3 43.1364C444.759 44.6013 444.088 45.8139 443.287 46.7741C442.487 47.7467 441.558 48.4669 440.499 48.9347C439.453 49.4025 438.271 49.6364 436.954 49.6364ZM482.075 1.18182V39H477.717V1.18182H482.075ZM501.58 39.5909C499.019 39.5909 496.772 38.9815 494.84 37.7628C492.919 36.544 491.417 34.839 490.334 32.6477C489.263 30.4564 488.727 27.8958 488.727 24.9659C488.727 22.0114 489.263 19.4323 490.334 17.2287C491.417 15.0251 492.919 13.3139 494.84 12.0952C496.772 10.8764 499.019 10.267 501.58 10.267C504.14 10.267 506.381 10.8764 508.301 12.0952C510.234 13.3139 511.736 15.0251 512.807 17.2287C513.89 19.4323 514.432 22.0114 514.432 24.9659C514.432 27.8958 513.89 30.4564 512.807 32.6477C511.736 34.839 510.234 36.544 508.301 37.7628C506.381 38.9815 504.14 39.5909 501.58 39.5909ZM501.58 35.6761C503.525 35.6761 505.125 35.1776 506.381 34.1804C507.637 33.1832 508.566 31.8722 509.169 30.2472C509.772 28.6222 510.074 26.8617 510.074 24.9659C510.074 23.0701 509.772 21.3035 509.169 19.6662C508.566 18.0289 507.637 16.7055 506.381 15.696C505.125 14.6866 503.525 14.1818 501.58 14.1818C499.635 14.1818 498.034 14.6866 496.779 15.696C495.523 16.7055 494.593 18.0289 493.99 19.6662C493.387 21.3035 493.085 23.0701 493.085 24.9659C493.085 26.8617 493.387 28.6222 493.99 30.2472C494.593 31.8722 495.523 33.1832 496.779 34.1804C498.034 35.1776 499.635 35.6761 501.58 35.6761ZM532.533 50.2273C530.428 50.2273 528.618 49.9564 527.104 49.4148C525.59 48.8854 524.328 48.1837 523.319 47.3097C522.322 46.4479 521.528 45.5246 520.937 44.5398L524.408 42.1023C524.802 42.6193 525.301 43.2102 525.904 43.875C526.507 44.5521 527.332 45.1368 528.378 45.6293C529.437 46.134 530.822 46.3864 532.533 46.3864C534.823 46.3864 536.713 45.8324 538.202 44.7244C539.692 43.6165 540.437 41.8807 540.437 39.517V33.7557H540.067C539.747 34.2727 539.292 34.9129 538.701 35.6761C538.122 36.4271 537.285 37.098 536.189 37.6889C535.106 38.2675 533.641 38.5568 531.795 38.5568C529.505 38.5568 527.449 38.0152 525.627 36.9318C523.817 35.8485 522.383 34.2727 521.324 32.2045C520.278 30.1364 519.755 27.625 519.755 24.6705C519.755 21.7652 520.266 19.2353 521.287 17.081C522.309 14.9143 523.731 13.2401 525.553 12.0582C527.375 10.8641 529.48 10.267 531.868 10.267C533.715 10.267 535.18 10.5748 536.263 11.1903C537.359 11.7936 538.196 12.483 538.775 13.2585C539.366 14.0218 539.821 14.6496 540.141 15.142H540.584V10.6364H544.795V39.8125C544.795 42.25 544.241 44.232 543.133 45.7585C542.037 47.2973 540.56 48.4238 538.701 49.1378C536.854 49.8641 534.798 50.2273 532.533 50.2273ZM532.385 34.642C534.134 34.642 535.611 34.242 536.817 33.4418C538.024 32.6416 538.941 31.4905 539.569 29.9886C540.197 28.4867 540.51 26.6894 540.51 24.5966C540.51 22.553 540.203 20.7495 539.587 19.1861C538.972 17.6226 538.061 16.3977 536.854 15.5114C535.648 14.625 534.158 14.1818 532.385 14.1818C530.539 14.1818 529 14.6496 527.769 15.5852C526.55 16.5208 525.633 17.7765 525.018 19.3523C524.414 20.928 524.113 22.6761 524.113 24.5966C524.113 26.5663 524.421 28.3082 525.036 29.8224C525.664 31.3243 526.587 32.5062 527.806 33.3679C529.037 34.2173 530.564 34.642 532.385 34.642ZM555.948 39.2955C555.037 39.2955 554.255 38.9692 553.603 38.3168C552.95 37.6643 552.624 36.8826 552.624 35.9716C552.624 35.0606 552.95 34.2789 553.603 33.6264C554.255 32.974 555.037 32.6477 555.948 32.6477C556.859 32.6477 557.641 32.974 558.293 33.6264C558.946 34.2789 559.272 35.0606 559.272 35.9716C559.272 36.5748 559.118 37.1288 558.81 37.6335C558.515 38.1383 558.115 38.5445 557.61 38.8523C557.117 39.1477 556.564 39.2955 555.948 39.2955Z" fill="#64748B"/>
</svg>

