<svg width="400" height="400" viewBox="0 0 400 400" fill="none" xmlns="http://www.w3.org/2000/svg">
<path d="M312 0H88C39.3989 0 0 39.3989 0 88V312C0 360.601 39.3989 400 88 400H312C360.601 400 400 360.601 400 312V88C400 39.3989 360.601 0 312 0Z" fill="#3B82F6"/>
<path opacity="0.4" d="M96 252H80C71.1634 252 64 259.163 64 268V316C64 324.837 71.1634 332 80 332H96C104.837 332 112 324.837 112 316V268C112 259.163 104.837 252 96 252Z" fill="white"/>
<path opacity="0.65" d="M160 196H144C135.163 196 128 203.163 128 212V316C128 324.837 135.163 332 144 332H160C168.837 332 176 324.837 176 316V212C176 203.163 168.837 196 160 196Z" fill="white"/>
<path opacity="0.85" d="M224 132H208C199.163 132 192 139.163 192 148V316C192 324.837 199.163 332 208 332H224C232.837 332 240 324.837 240 316V148C240 139.163 232.837 132 224 132Z" fill="white"/>
<path d="M288 68H272C263.163 68 256 75.1634 256 84V316C256 324.837 263.163 332 272 332H288C296.837 332 304 324.837 304 316V84C304 75.1634 296.837 68 288 68Z" fill="white"/>
<path d="M340 100C359.882 100 376 83.8823 376 64C376 44.1177 359.882 28 340 28C320.118 28 304 44.1177 304 64C304 83.8823 320.118 100 340 100Z" fill="#00D4FF"/>
</svg>

